<svg id="footer-socmed.svg" xmlns="http://www.w3.org/2000/svg" xmlns:xlink="http://www.w3.org/1999/xlink" width="261" height="32" viewBox="0 0 261 32">
  <defs>
    <style>
      .cls-1 {
        fill: #0188f5;
        filter: url(#filter);
      }

      .cls-1, .cls-2, .cls-3, .cls-4, .cls-5 {
        fill-rule: evenodd;
      }

      .cls-2 {
        fill: #005a87;
        filter: url(#filter-2);
      }

      .cls-3 {
        fill: #da4935;
        filter: url(#filter-3);
      }

      .cls-4 {
        fill: #4463b1;
        filter: url(#filter-4);
      }

      .cls-5 {
        fill: #4e9edc;
        filter: url(#filter-5);
      }
    </style>
    <filter id="filter" x="1095" y="5461" width="32" height="32" filterUnits="userSpaceOnUse">
      <feFlood result="flood" flood-color="#ebebeb"/>
      <feComposite result="composite" operator="in" in2="SourceGraphic"/>
      <feBlend result="blend" in2="SourceGraphic"/>
    </filter>
    <filter id="filter-2" x="1152" y="5461" width="32" height="32" filterUnits="userSpaceOnUse">
      <feFlood result="flood" flood-color="#ebebeb"/>
      <feComposite result="composite" operator="in" in2="SourceGraphic"/>
      <feBlend result="blend" in2="SourceGraphic"/>
    </filter>
    <filter id="filter-3" x="1210" y="5461" width="32" height="32" filterUnits="userSpaceOnUse">
      <feFlood result="flood" flood-color="#ebebeb"/>
      <feComposite result="composite" operator="in" in2="SourceGraphic"/>
      <feBlend result="blend" in2="SourceGraphic"/>
    </filter>
    <filter id="filter-4" x="1267" y="5461" width="32" height="32" filterUnits="userSpaceOnUse">
      <feFlood result="flood" flood-color="#ebebeb"/>
      <feComposite result="composite" operator="in" in2="SourceGraphic"/>
      <feBlend result="blend" in2="SourceGraphic"/>
    </filter>
    <filter id="filter-5" x="1324" y="5461" width="32" height="32" filterUnits="userSpaceOnUse">
      <feFlood result="flood" flood-color="#ebebeb"/>
      <feComposite result="composite" operator="in" in2="SourceGraphic"/>
      <feBlend result="blend" in2="SourceGraphic"/>
    </filter>
  </defs>
  <path id="behance.svg" class="cls-1" d="M1111,5461a16,16,0,1,1-16,16A16,16,0,0,1,1111,5461Zm-10,10h5.79c2.35,0,3.93.79,3.93,2.97a2.556,2.556,0,0,1-1.67,2.44,2.88,2.88,0,0,1,2.26,2.97c0,2.37-2.12,3.39-4.35,3.39H1101V5471Zm2.47,4.71h2.98a1.394,1.394,0,0,0,1.65-1.39c0-1.12-.89-1.35-1.86-1.35h-2.77v2.74Zm0,5.16h3.13c1.07,0,1.92-.33,1.92-1.54s-0.71-1.67-1.87-1.67h-3.18v3.21Zm10.93-2.04c0.07,1.48.83,2.42,2.19,2.42a2.3,2.3,0,0,0,2.03-1.3h2.16a4.553,4.553,0,0,1-8.85-1.41,4.371,4.371,0,0,1,4.57-4.47c3.03,0,4.5,2.16,4.33,4.76h-6.43Zm3.98-1.52c-0.22-1.18-.76-1.49-1.95-1.49-1.55,0-2,.83-2.03,1.49h3.98Zm0.78-3.95h-4.94v-1.57h4.94v1.57Z" transform="translate(-1095 -5461)"/>
  <path id="linked-in.svg" class="cls-2" d="M1168,5461a16,16,0,1,1-16,16A16,16,0,0,1,1168,5461Zm-8.52,7.46a1.52,1.52,0,0,0-.47,1.11,1.563,1.563,0,0,0,.48,1.15,1.616,1.616,0,0,0,1.16.47,1.546,1.546,0,0,0,1.14-.46,1.57,1.57,0,0,0,0-2.26A1.667,1.667,0,0,0,1159.48,5468.46ZM1159,5484h3.27v-12.01H1159V5484Zm5.73,0h3.26v-4.36a11.653,11.653,0,0,1,.16-2.5,3.248,3.248,0,0,1,1.12-1.74,3.072,3.072,0,0,1,1.94-.63,2.687,2.687,0,0,1,1.46.38,2.013,2.013,0,0,1,.83,1.11,11.3,11.3,0,0,1,.24,2.93V5484H1177v-7.56a4,4,0,0,0-1.35-3.22,5.03,5.03,0,0,0-3.51-1.28,5.188,5.188,0,0,0-1.86.34,10.261,10.261,0,0,0-2.28,1.31v-1.6h-3.27V5484Z" transform="translate(-1095 -5461)"/>
  <path id="google_.svg" data-name="google+.svg" class="cls-3" d="M1226,5461a16.005,16.005,0,1,1-16,16A16,16,0,0,1,1226,5461Zm-1.35,7.27a6,6,0,0,1,2.43,4.78c0,2.62-1.43,3.86-2.87,5.03a2.538,2.538,0,0,0-.96,1.74,1.947,1.947,0,0,0,.89,1.52l1.23,1c1.51,1.31,2.88,2.51,2.88,4.96,0,3.33-3.12,6.7-9,6.7-4.96,0-7.36-2.45-7.36-5.07a5.127,5.127,0,0,1,2.64-4.32c2.12-1.35,4.99-1.53,6.53-1.63a3.8,3.8,0,0,1-1.02-2.41,3.306,3.306,0,0,1,.34-1.39,10.655,10.655,0,0,1-1.1.07,5.5,5.5,0,0,1-5.67-5.56,6.459,6.459,0,0,1,2.18-4.75,9.1,9.1,0,0,1,6.13-1.95h7.04l-2.18,1.28h-2.13Zm-2.42,15.73a6.445,6.445,0,0,0-.79-0.03,13.082,13.082,0,0,0-3.59.57,3.926,3.926,0,0,0-2.95,3.65c0,2.51,2.37,4.32,6.03,4.32,3.28,0,5.02-1.63,5.02-3.83,0-1.81-1.12-2.76-3.72-4.68h0Zm0.99-6.73a3.7,3.7,0,0,0,.85-2.59c0-2.55-1.47-6.52-4.31-6.52a3.146,3.146,0,0,0-2.39,1.17,4.191,4.191,0,0,0-.75,2.62c0,2.38,1.33,6.31,4.27,6.31a3.428,3.428,0,0,0,2.33-.99h0Zm8.69-10.27h2v8h-2v-8Zm-3,3h8v2h-8v-2Z" transform="translate(-1095 -5461)"/>
  <path id="facebook.svg" class="cls-4" d="M1283,5461a16,16,0,1,1-16,16A16,16,0,0,1,1283,5461Zm6,6v4h-2a1.17,1.17,0,0,0-1,1v2h3l-1,4h-2v9h-4v-9h-2v-4h2v-3s-0.75-4,3.13-4H1289Z" transform="translate(-1095 -5461)"/>
  <path id="twitter.svg" class="cls-5" d="M1340,5461a16,16,0,1,1-16,16A16,16,0,0,1,1340,5461Zm9.9,10.2a6.844,6.844,0,0,1-2.12.64,4.034,4.034,0,0,0,1.62-2.23,6.977,6.977,0,0,1-2.35.98,3.523,3.523,0,0,0-2.69-1.28,3.876,3.876,0,0,0-3.69,4.04,4.63,4.63,0,0,0,.09.92,10.226,10.226,0,0,1-7.61-4.22,4.3,4.3,0,0,0-.5,2.03,4.141,4.141,0,0,0,1.64,3.36,3.467,3.467,0,0,1-1.67-.5v0.05a3.962,3.962,0,0,0,2.96,3.96,3.5,3.5,0,0,1-.97.14,3.26,3.26,0,0,1-.7-0.07,3.759,3.759,0,0,0,3.45,2.8,6.96,6.96,0,0,1-4.58,1.73,8.334,8.334,0,0,1-.88-0.05,9.83,9.83,0,0,0,5.66,1.81c6.79,0,10.5-6.15,10.5-11.49,0-.18,0-0.35-0.01-0.52a7.791,7.791,0,0,0,1.85-2.1" transform="translate(-1095 -5461)"/>
</svg>
